<svg width="21" height="19" viewBox="0 0 21 19" fill="none" xmlns="http://www.w3.org/2000/svg">
<path d="M14.038 6.59989L19.032 6.59789L15.851 3.41489C14.8269 2.39076 13.5492 1.65629 12.1502 1.2815C10.7512 0.90671 9.27821 0.90682 7.87927 1.28182C6.48033 1.65681 5.20476 2.39348 4.1808 3.41776C3.15684 4.44204 2.42056 5.71784 2.046 7.11689M1 16.8959V11.9039M1 11.9039H5.992M1 11.9039L4.18 15.0869C5.20412 16.111 6.47979 16.8475 7.87879 17.2223C9.27778 17.5971 10.7508 17.597 12.1497 17.222C13.5487 16.847 14.8242 16.1103 15.8482 15.086C16.8722 14.0617 17.6084 12.7859 17.983 11.3869M19.03 1.60789V4.10289V6.59789" stroke="black" stroke-width="2" stroke-linecap="round" stroke-linejoin="round"/>
</svg>
